<?xml version="1.0" standalone="no"?>
<!DOCTYPE svg PUBLIC "-//W3C//DTD SVG 20010904//EN"
 "http://www.w3.org/TR/2001/REC-SVG-20010904/DTD/svg10.dtd">
<svg version="1.0" xmlns="http://www.w3.org/2000/svg"
 width="1754.000000pt" height="1240.000000pt" viewBox="0 0 1754.000000 1240.000000"
 preserveAspectRatio="xMidYMid meet">

<g transform="translate(0.000000,1240.000000) scale(0.100000,-0.100000)"
fill="#000000" stroke="none">
<path d="M11270 9563 c-145 -9 -1034 -124 -1065 -139 -14 -6 104 2 385 25 665
55 1237 52 1476 -9 136 -35 183 -71 169 -127 -8 -36 -112 -136 -200 -193 -159
-104 60 -18 263 103 167 99 223 164 192 221 -27 52 -168 97 -364 116 -98 9
-715 11 -856 3z"/>
<path d="M10158 9413 c6 -2 18 -2 25 0 6 3 1 5 -13 5 -14 0 -19 -2 -12 -5z"/>
<path d="M8675 8770 c-27 -9 -56 -15 -62 -12 -7 2 -13 0 -13 -6 0 -6 -13 -13
-30 -17 -16 -4 -30 -10 -30 -14 0 -4 -12 -13 -26 -20 -15 -6 -24 -14 -21 -18
4 -3 18 2 32 11 16 10 35 15 48 11 17 -5 19 -4 7 4 -19 13 -12 19 30 27 23 5
31 4 26 -4 -3 -6 -1 -14 5 -18 8 -4 9 -3 5 4 -4 7 7 17 30 27 44 18 47 18 38
3 -4 -7 -3 -8 4 -4 6 4 9 13 6 21 -8 20 131 14 173 -8 20 -11 34 -13 38 -7 3
6 -2 10 -12 10 -10 0 -25 5 -33 11 -11 8 -7 9 18 5 18 -3 32 -1 32 4 0 17
-209 10 -265 -10z"/>
<path d="M8967 8763 c4 -9 14 -13 26 -9 13 3 26 -2 33 -12 9 -11 13 -13 14 -4
0 9 5 10 19 2 11 -5 26 -10 33 -10 23 0 -39 28 -85 38 -38 8 -44 7 -40 -5z"/>
<path d="M8780 8720 c0 -5 5 -10 10 -10 6 0 10 5 10 10 0 6 -4 10 -10 10 -5 0
-10 -4 -10 -10z"/>
<path d="M9107 8723 c-4 -6 0 -13 8 -17 15 -5 16 -39 2 -52 -4 -4 11 -20 34
-37 22 -16 43 -27 46 -23 4 3 2 6 -4 6 -6 0 -13 9 -16 20 -3 11 -16 24 -29 29
-13 6 -16 10 -8 11 13 0 13 1 0 10 -19 12 -8 13 24 0 14 -5 28 -5 31 -1 5 9
-20 24 -42 26 -7 0 -19 9 -26 19 -9 12 -16 15 -20 9z m53 -93 c0 -5 -2 -10 -4
-10 -3 0 -8 5 -11 10 -3 6 -1 10 4 10 6 0 11 -4 11 -10z"/>
<path d="M8857 8682 c-2 -20 -2 -41 1 -47 3 -5 4 -54 3 -108 -2 -69 1 -97 8
-93 13 9 15 272 2 280 -5 3 -11 -11 -14 -32z"/>
<path d="M8723 8697 c2 -20 19 -25 26 -6 2 6 -1 9 -7 5 -6 -3 -13 0 -16 6 -3
7 -5 5 -3 -5z"/>
<path d="M8812 8583 c-2 -154 8 -144 -131 -140 -65 2 -85 -1 -89 -12 -3 -9 0
-12 11 -8 11 4 13 0 10 -14 -4 -13 -11 -18 -20 -15 -21 8 -38 -4 -22 -15 22
-13 235 -11 222 2 -6 6 -45 11 -92 10 -47 0 -81 3 -81 9 0 6 23 10 51 10 31 0
48 4 44 10 -4 6 13 10 44 10 58 0 62 7 66 105 1 33 5 76 9 95 5 24 4 31 -3 21
-7 -11 -11 -5 -14 25 -2 21 -4 -21 -5 -93z"/>
<path d="M9070 8700 c-12 -8 -10 -10 8 -10 13 0 20 4 17 10 -7 12 -6 12 -25 0z"/>
<path d="M8966 8666 c21 -19 41 -30 42 -25 5 13 -18 39 -34 39 -8 0 -14 5 -14
10 0 6 -7 10 -17 10 -11 0 -3 -11 23 -34z"/>
<path d="M8399 8609 c-77 -80 -117 -146 -98 -163 9 -8 10 -8 6 0 -4 7 -1 23 6
36 10 20 15 22 24 13 7 -7 9 -16 5 -21 -4 -4 -1 -4 6 0 11 7 10 11 -2 25 -15
17 -14 20 16 44 39 33 45 33 42 5 -1 -13 -3 -27 -3 -33 -1 -5 -6 -3 -11 5 -5
8 -10 10 -10 4 0 -26 15 -20 51 19 21 23 38 49 38 57 -1 13 -1 13 -6 0 -3 -8
-17 -26 -30 -40 -23 -23 -25 -24 -19 -3 4 12 2 24 -4 28 -16 10 -12 23 10 30
11 4 17 11 14 17 -5 7 -1 9 8 5 19 -7 55 28 39 38 -6 3 -43 -26 -82 -66z"/>
<path d="M8672 8658 c2 -13 -4 -31 -14 -42 -9 -10 -14 -24 -11 -32 3 -8 -1
-14 -11 -14 -9 0 -16 -4 -16 -10 0 -5 4 -10 8 -10 14 0 32 24 32 43 0 10 5 15
10 12 6 -3 10 -1 10 6 0 7 10 23 22 36 22 23 12 33 -11 11 -10 -11 -11 -10 -6
5 4 10 2 17 -5 17 -6 0 -10 -10 -8 -22z"/>
<path d="M8557 8657 c3 -5 -4 -6 -17 -2 -15 5 -20 4 -16 -4 10 -15 31 -14 45
2 8 10 7 14 -4 14 -8 0 -12 -5 -8 -10z"/>
<path d="M9190 8645 c-7 -9 -8 -15 0 -20 5 -3 10 1 10 10 0 9 5 13 11 10 6 -4
8 -13 5 -20 -2 -7 4 -15 15 -18 10 -3 17 -1 13 4 -3 5 0 9 6 9 6 0 8 5 4 11
-4 8 -9 7 -15 -2 -7 -11 -9 -11 -9 2 0 22 -26 31 -40 14z"/>
<path d="M8497 8643 c10 -3 9 -8 -2 -20 -8 -8 -15 -19 -15 -25 0 -6 9 -1 20
12 20 23 19 41 -3 39 -9 0 -9 -2 0 -6z"/>
<path d="M8630 8640 c0 -5 5 -10 11 -10 5 0 7 5 4 10 -3 6 -8 10 -11 10 -2 0
-4 -4 -4 -10z"/>
<path d="M8603 8624 c-7 -7 -13 -18 -13 -24 0 -5 -4 -10 -10 -10 -5 0 -10 -5
-10 -12 0 -9 3 -9 11 -1 6 6 19 9 28 6 13 -4 14 -3 2 5 -12 9 -13 13 -1 26 16
20 10 29 -7 10z"/>
<path d="M9081 8617 c-13 -21 -12 -21 5 -5 10 10 16 20 13 22 -3 3 -11 -5 -18
-17z"/>
<path d="M9023 8623 c-9 -3 -5 -16 12 -44 14 -21 25 -42 25 -47 0 -5 7 -9 14
-9 18 0 6 27 -25 58 -20 20 -25 39 -10 39 5 0 12 -5 14 -10 3 -6 4 -5 3 2 -3
14 -16 18 -33 11z"/>
<path d="M9258 8593 c-3 -10 2 -25 10 -32 12 -12 13 -11 7 10 -5 18 -4 21 4 9
6 -8 11 -28 11 -45 1 -26 2 -28 11 -12 10 18 12 17 27 -5 9 -12 15 -31 14 -42
-2 -10 1 -15 6 -12 19 12 -5 60 -59 120 -24 25 -27 26 -31 9z"/>
<path d="M9101 8584 c0 -11 3 -14 6 -6 3 7 2 16 -1 19 -3 4 -6 -2 -5 -13z"/>
<path d="M9220 8590 c0 -5 5 -10 11 -10 5 0 7 5 4 10 -3 6 -8 10 -11 10 -2 0
-4 -4 -4 -10z"/>
<path d="M9243 8528 c23 -26 50 -48 60 -48 10 0 15 5 12 10 -3 6 -15 10 -27
10 -14 0 -18 5 -14 15 3 8 0 14 -6 12 -7 -1 -13 4 -14 11 -1 6 -2 16 -3 21 0
5 -12 11 -25 13 -22 5 -21 1 17 -44z"/>
<path d="M9116 8562 c-3 -6 -2 -13 4 -17 5 -3 10 -11 10 -16 0 -6 -5 -7 -11
-3 -6 3 -4 -8 5 -24 19 -37 36 -49 36 -27 0 10 -5 13 -12 9 -8 -5 -9 -2 -5 9
7 20 -17 84 -27 69z"/>
<path d="M8552 8528 c-33 -83 -33 -83 -96 -83 -65 0 -72 2 -78 30 -3 18 -4 18
-10 3 -11 -27 47 -84 67 -68 8 7 21 10 30 7 8 -4 17 -2 20 3 4 6 14 6 27 -1
17 -9 20 -9 15 3 -3 8 3 21 12 28 11 7 17 22 15 38 -3 26 18 56 31 44 4 -4 6
-1 3 7 -8 26 -23 22 -36 -11z m-112 -98 c0 -5 -4 -10 -10 -10 -5 0 -10 5 -10
10 0 6 5 10 10 10 6 0 10 -4 10 -10z"/>
<path d="M8621 8524 c0 -11 3 -14 6 -6 3 7 2 16 -1 19 -3 4 -6 -2 -5 -13z"/>
<path d="M8588 8502 c-6 -22 1 -44 13 -36 12 7 12 41 0 48 -5 3 -11 -2 -13
-12z"/>
<path d="M9092 8478 l-8 -33 -97 0 c-62 0 -98 -4 -101 -11 -3 -7 22 -10 82 -8
50 1 93 -3 100 -9 10 -8 12 -7 10 2 -2 8 5 15 15 16 9 2 17 -1 17 -6 0 -6 5
-7 11 -3 8 4 7 9 -2 14 -7 5 -12 22 -12 39 0 40 -4 39 -15 -1z"/>
<path d="M8571 8454 c0 -11 3 -14 6 -6 3 7 2 16 -1 19 -3 4 -6 -2 -5 -13z"/>
<path d="M9290 8450 c0 -5 5 -10 10 -10 6 0 10 5 10 10 0 6 -4 10 -10 10 -5 0
-10 -4 -10 -10z"/>
<path d="M9361 8438 c-10 -16 -10 -18 0 -12 9 5 10 2 6 -10 -4 -10 -3 -15 3
-11 17 10 30 -31 20 -64 -7 -24 -5 -31 5 -31 18 0 12 83 -7 122 -14 26 -15 26
-27 6z"/>
<path d="M9164 8438 c-3 -4 2 -20 11 -35 8 -16 15 -21 14 -13 -3 32 2 40 22
40 11 0 17 -4 14 -10 -3 -5 -1 -10 4 -10 6 0 11 5 11 10 0 6 8 10 17 10 9 0
13 3 9 7 -10 10 -96 11 -102 1z"/>
<path d="M8270 8411 c-7 -17 -10 -36 -7 -43 3 -9 7 -6 13 7 4 11 12 23 17 27
12 8 48 -13 41 -24 -3 -4 0 -8 5 -8 18 0 12 18 -10 34 -12 8 -28 12 -35 9 -10
-4 -12 0 -8 11 11 29 -3 17 -16 -13z"/>
<path d="M8830 8420 c0 -5 -7 -10 -15 -10 -8 0 -15 -5 -15 -10 0 -7 6 -7 19 0
24 12 36 30 22 30 -6 0 -11 -4 -11 -10z"/>
<path d="M8353 8397 c4 -10 7 -21 7 -23 0 -2 29 -4 65 -4 46 0 65 4 65 13 0 8
-14 11 -46 8 -32 -2 -49 1 -55 10 -7 12 -9 12 -9 0 0 -11 -3 -11 -17 0 -15 12
-16 12 -10 -4z"/>
<path d="M8866 8318 c-3 -51 -5 -122 -4 -158 0 -36 -2 -76 -6 -90 -5 -21 -5
-22 3 -5 8 17 10 14 10 -17 1 -21 4 -38 9 -38 4 0 6 82 4 182 l-3 183 116 -3
c76 -2 115 0 115 7 0 6 8 11 18 12 11 0 12 2 4 6 -7 3 -19 -1 -27 -7 -10 -8
-15 -9 -15 -2 0 6 -7 9 -15 6 -9 -4 -15 0 -15 7 0 10 -2 11 -8 3 -4 -7 -34
-13 -67 -14 -83 -3 -97 -2 -90 10 3 6 0 10 -8 10 -12 0 -16 -20 -21 -92z"/>
<path d="M9213 8385 c2 -5 35 -10 74 -10 45 -1 69 3 67 10 -5 13 -145 14 -141
0z"/>
<path d="M9161 8374 c0 -11 3 -14 6 -6 3 7 2 16 -1 19 -3 4 -6 -2 -5 -13z"/>
<path d="M8530 8372 c0 -6 5 -12 11 -14 8 -3 9 -10 2 -23 -6 -12 -7 -62 -3
-125 3 -58 3 -113 -2 -122 -4 -9 -4 -27 1 -40 6 -13 10 -17 10 -10 1 7 6 10
11 7 6 -4 8 -11 5 -16 -4 -5 -1 -9 5 -9 11 0 7 27 -11 84 -13 42 -11 173 3
196 9 13 9 27 3 46 -10 27 -35 45 -35 26z m17 -74 c-3 -8 -6 -5 -6 6 -1 11 2
17 5 13 3 -3 4 -12 1 -19z"/>
<path d="M8810 8196 l-5 -189 -95 2 c-107 3 -121 -6 -17 -11 52 -2 67 -6 67
-18 1 -12 4 -11 15 4 10 14 15 15 15 6 0 -9 6 -6 15 7 13 18 15 54 13 205 l-3
183 -5 -189z"/>
<path d="M8500 8350 c-13 -25 -9 -72 6 -77 7 -2 11 14 10 47 0 27 -2 50 -3 50
-1 0 -7 -9 -13 -20z"/>
<path d="M9121 8343 c-1 -38 12 -49 30 -26 12 15 12 16 -3 10 -13 -4 -18 1
-21 21 -4 25 -4 25 -6 -5z"/>
<path d="M8302 8325 c-7 -22 -12 -79 -12 -127 0 -48 -4 -89 -9 -93 -21 -12
-37 34 -35 102 2 38 -1 76 -7 84 -5 9 -8 -28 -8 -101 0 -75 3 -108 9 -95 7 16
9 11 9 -20 0 -52 11 -105 22 -105 5 0 9 -7 9 -16 0 -8 4 -13 9 -9 5 3 12 1 16
-5 3 -5 1 -10 -4 -10 -6 0 -11 -5 -11 -11 0 -5 4 -8 9 -4 5 3 11 -7 13 -22 4
-37 28 -43 24 -6 -1 15 2 34 7 41 6 8 6 12 -2 12 -6 0 -11 -4 -11 -10 0 -19
-16 -10 -17 10 -1 13 2 18 9 14 7 -5 9 -1 5 9 -5 14 0 17 26 17 22 0 28 3 18
9 -8 5 4 9 34 9 37 1 55 -4 77 -23 16 -14 42 -25 56 -25 l27 0 -29 15 c-15 8
-35 15 -43 15 -9 0 -13 6 -10 14 5 12 -11 15 -79 18 -74 3 -88 0 -102 -16 -16
-18 -16 -19 0 -13 12 4 15 2 11 -9 -4 -11 -9 -12 -19 -4 -7 7 -10 18 -7 26 3
8 1 14 -5 14 -5 0 -12 6 -15 14 -4 11 1 14 21 13 18 -1 27 3 27 13 0 10 -8 14
-21 12 -13 -2 -24 4 -28 14 -5 13 -2 15 14 11 19 -5 20 0 20 100 0 57 5 113
11 124 5 11 9 28 6 37 -2 10 -8 1 -15 -23z m33 -325 c3 -5 1 -10 -4 -10 -6 0
-11 5 -11 10 0 6 2 10 4 10 3 0 8 -4 11 -10z"/>
<path d="M9340 8353 c0 -5 7 -30 14 -58 l14 -50 1 42 c1 23 -4 45 -9 48 -6 4
-8 11 -5 16 4 5 1 9 -4 9 -6 0 -11 -3 -11 -7z"/>
<path d="M8245 8340 c-3 -5 -1 -18 4 -27 9 -16 10 -14 11 10 0 28 -5 34 -15
17z"/>
<path d="M9182 8320 c0 -19 2 -27 5 -17 2 9 2 25 0 35 -3 9 -5 1 -5 -18z"/>
<path d="M9422 8295 c0 -16 2 -22 5 -12 2 9 2 23 0 30 -3 6 -5 -1 -5 -18z"/>
<path d="M9139 8269 c0 -13 -2 -46 -4 -74 -2 -27 1 -57 6 -65 6 -11 8 -6 9 18
0 24 5 32 18 32 15 1 15 2 1 13 -9 7 -16 29 -17 51 -2 43 -12 63 -13 25z"/>
<path d="M8490 8197 c0 -37 4 -67 9 -67 11 0 9 115 -2 126 -4 4 -7 -23 -7 -59z"/>
<path d="M9191 8183 c1 -49 3 -61 9 -43 12 36 12 98 0 105 -6 4 -10 -19 -9
-62z"/>
<path d="M9410 8243 c5 -2 10 -21 10 -41 0 -28 3 -33 12 -24 14 14 0 64 -20
68 -7 1 -8 0 -2 -3z"/>
<path d="M9373 8185 c0 -33 2 -45 4 -27 2 18 2 45 0 60 -2 15 -4 0 -4 -33z"/>
<path d="M9402 8139 c-8 -12 -9 -18 -3 -14 7 4 11 -9 11 -36 0 -57 12 -42 17
21 4 53 -4 63 -25 29z"/>
<path d="M8497 8089 c-6 -23 8 -59 23 -59 4 0 4 17 -2 38 -13 46 -14 48 -21
21z"/>
<path d="M9357 8095 c-8 -20 -4 -29 11 -24 5 2 6 13 2 23 -6 19 -7 19 -13 1z"/>
<path d="M9125 8078 c-2 -7 -5 -24 -7 -38 -3 -25 -5 -25 -111 -30 -99 -5 -105
-6 -78 -18 23 -10 35 -11 52 -2 14 8 24 9 31 2 7 -7 20 -7 39 0 17 6 41 8 54
6 15 -3 22 -1 18 5 -3 5 5 19 18 29 14 12 17 18 7 15 -12 -4 -15 0 -13 19 2
26 -3 32 -10 12z"/>
<path d="M9179 8065 c-3 -11 -3 -29 1 -40 4 -11 3 -26 -3 -33 -8 -10 -5 -14
11 -19 28 -7 28 -20 0 -26 -13 -2 1 -5 30 -6 28 0 52 3 52 8 0 4 -12 6 -27 3
-27 -4 -28 -4 -8 12 20 17 20 17 -1 11 -24 -6 -41 23 -46 80 -3 24 -4 26 -9
10z"/>
<path d="M9340 8037 c0 -19 4 -25 14 -21 16 6 30 34 21 42 -3 3 -5 0 -5 -8 0
-10 -3 -10 -15 0 -13 11 -15 8 -15 -13z"/>
<path d="M9391 8033 c0 -5 4 -17 9 -28 8 -18 9 -17 9 8 1 15 -3 27 -9 27 -5 0
-10 -3 -9 -7z"/>
<path d="M8600 7995 c0 -8 4 -15 10 -15 5 0 7 7 4 15 -4 8 -8 15 -10 15 -2 0
-4 -7 -4 -15z"/>
<path d="M9220 8002 c0 -4 19 -6 43 -4 70 5 76 10 15 11 -32 0 -58 -2 -58 -7z"/>
<path d="M9379 8008 c-7 -15 -6 -58 1 -58 15 0 22 20 11 34 -6 7 -8 16 -4 19
3 4 3 7 0 7 -4 0 -8 -1 -8 -2z"/>
<path d="M8560 7986 c0 -2 7 -9 15 -16 9 -7 15 -8 15 -2 0 5 -7 12 -15 16 -8
3 -15 4 -15 2z"/>
<path d="M8885 7970 c-14 -23 11 -30 101 -30 61 0 93 4 89 10 -8 12 -8 12 33
1 30 -9 31 -8 21 10 -6 13 -17 18 -26 15 -8 -3 -51 -6 -94 -6 -51 0 -78 -4
-74 -10 7 -11 -6 -13 -30 -4 -13 5 -14 8 -3 15 9 6 9 9 1 9 -6 0 -15 -4 -18
-10z"/>
<path d="M8740 7963 c0 -8 -23 -13 -62 -16 -51 -2 -44 -4 30 -5 57 -1 91 2 87
8 -3 5 -13 6 -21 3 -9 -3 -20 0 -25 8 -6 9 -9 10 -9 2z"/>
<path d="M8373 7937 c-20 -16 -21 -20 -8 -33 8 -9 15 -20 15 -25 0 -6 5 -7 10
-4 6 4 4 12 -5 22 -26 25 -12 38 51 44 58 6 55 10 -8 13 -17 0 -42 -7 -55 -17z"/>
<path d="M8810 7808 c0 -72 1 -129 3 -127 1 2 9 13 17 23 11 15 12 18 2 12
-12 -7 -13 10 -10 94 2 71 7 105 16 108 19 6 14 18 -8 19 -19 2 -20 -4 -20
-129z"/>
<path d="M9315 7929 c-4 -6 -5 -13 -2 -16 7 -7 27 6 27 18 0 12 -17 12 -25 -2z"/>
<path d="M9360 7925 c0 -8 -6 -14 -12 -12 -7 1 -12 -7 -11 -17 2 -22 -21 -49
-32 -38 -4 4 -5 2 -3 -4 4 -14 -39 -74 -52 -74 -5 0 -6 8 -3 18 6 15 5 15 -10
3 -15 -12 -17 -11 -17 3 0 9 5 16 10 16 6 0 10 5 10 11 0 6 -15 -2 -34 -18
-36 -29 -54 -55 -33 -47 7 2 18 -5 25 -16 12 -20 4 -27 -13 -11 -6 5 -20 12
-32 16 -18 5 -22 3 -17 -9 5 -12 2 -15 -12 -9 -14 5 -13 2 5 -16 12 -12 26
-19 31 -16 6 4 7 -1 3 -12 -5 -12 6 -8 35 15 23 19 42 38 42 44 0 7 -5 6 -14
-1 -12 -10 -17 -8 -25 8 -13 24 6 42 20 20 5 -8 9 -10 9 -5 0 5 6 3 13 -3 10
-8 20 -4 40 17 15 16 24 31 20 35 -3 4 -1 7 4 7 10 0 73 92 73 105 0 3 -4 5
-10 5 -5 0 -10 -7 -10 -15z m-175 -196 c10 -14 1 -21 -19 -13 -9 3 -13 10 -10
15 7 12 21 11 29 -2z"/>
<path d="M8544 7915 c-3 -8 -4 -20 -1 -27 3 -9 7 -6 13 7 4 11 12 23 18 27 7
5 4 8 -7 8 -10 0 -20 -7 -23 -15z"/>
<path d="M9088 7908 c5 -19 6 -19 17 -5 7 9 15 14 18 10 14 -13 6 -54 -14 -74
-11 -11 -18 -23 -15 -26 3 -4 1 -12 -5 -20 -9 -10 -15 -10 -25 -2 -10 8 -14 8
-14 0 0 -6 5 -11 10 -11 6 0 10 -7 10 -17 0 -13 4 -11 20 7 11 13 20 31 20 42
0 10 4 18 9 18 8 0 13 11 26 55 2 6 6 19 10 30 6 16 5 17 -4 5 -7 -10 -14 -11
-18 -5 -5 6 -18 12 -29 12 -17 1 -21 -3 -16 -19z"/>
<path d="M8865 7911 c-8 -14 -1 -221 8 -221 4 0 7 52 7 115 0 111 -2 126 -15
106z"/>
<path d="M9285 7901 c-3 -12 -11 -19 -16 -16 -5 4 -9 4 -9 1 0 -2 -3 -11 -6
-20 -4 -10 -1 -16 7 -16 15 0 45 57 36 66 -3 3 -8 -4 -12 -15z"/>
<path d="M8594 7888 c-4 -7 -4 -10 1 -6 9 8 35 -35 35 -57 0 -8 16 -34 35 -60
20 -25 33 -51 29 -57 -4 -7 -3 -8 4 -4 19 11 14 31 -13 56 -14 13 -25 28 -25
34 0 14 -40 95 -50 101 -5 3 -12 0 -16 -7z"/>
<path d="M8400 7861 c0 -10 19 -25 25 -20 1 2 -3 10 -11 17 -8 7 -14 8 -14 3z"/>
<path d="M8564 7848 c3 -13 6 -26 6 -30 0 -5 6 -8 14 -8 18 0 9 47 -11 54 -12
5 -14 1 -9 -16z"/>
<path d="M9064 7858 c3 -10 1 -18 -3 -18 -5 0 -19 -17 -32 -37 -12 -21 -37
-54 -56 -74 l-34 -36 31 2 c17 1 36 8 43 15 10 10 7 11 -12 5 l-23 -7 22 30
c13 17 28 29 34 28 6 -2 8 -1 5 1 -4 2 -4 13 -2 24 5 16 11 19 32 14 17 -4 22
-3 12 4 -7 5 -10 14 -7 20 4 6 2 19 -4 28 -11 17 -11 17 -6 1z"/>
<path d="M8402 7821 c7 -12 14 -17 16 -11 7 19 24 10 19 -9 -3 -13 0 -18 12
-16 9 1 39 -18 68 -42 28 -24 54 -40 57 -34 4 5 2 12 -4 16 -5 3 -10 4 -10 1
0 -6 -32 21 -81 68 -17 16 -38 30 -47 31 -10 0 -23 5 -30 9 -11 7 -11 4 0 -13z"/>
<path d="M8366 7808 c51 -61 116 -100 93 -56 -7 13 -14 17 -18 10 -7 -12 -48
26 -43 41 1 4 -4 6 -10 5 -7 -2 -12 3 -10 10 1 6 -5 12 -15 12 -14 0 -14 -3 3
-22z"/>
<path d="M8590 7786 c0 -7 7 -19 15 -26 8 -7 15 -19 15 -26 0 -8 7 -14 15 -14
8 0 15 5 15 10 0 6 -7 13 -15 16 -8 4 -15 17 -15 30 0 15 -6 24 -15 24 -8 0
-15 -6 -15 -14z"/>
<path d="M8480 7720 c-13 -9 -13 -11 0 -20 8 -5 20 -9 25 -9 6 0 4 3 -2 6 -7
2 -13 9 -13 15 0 6 7 7 16 4 8 -3 12 -2 9 4 -8 12 -16 12 -35 0z"/>
<path d="M9096 7712 c23 -19 20 -24 -31 -58 -29 -19 -29 -19 -22 1 7 19 6 19
-7 3 -15 -21 -36 -24 -36 -6 0 9 -3 9 -12 0 -10 -10 -10 -15 2 -23 12 -8 9
-10 -13 -6 -15 2 -30 0 -33 -4 -3 -5 -22 -9 -42 -9 -20 0 -44 -5 -52 -10 -11
-7 0 -10 37 -10 28 0 55 5 58 10 3 6 22 10 41 10 19 0 34 4 34 9 0 5 15 13 33
16 38 9 70 29 60 39 -4 4 0 4 10 0 9 -3 17 -2 17 3 0 12 -43 53 -56 53 -5 -1
0 -9 12 -18z"/>
<path d="M8726 7702 c-3 -6 -1 -14 5 -17 15 -10 25 3 12 16 -7 7 -13 7 -17 1z"/>
<path d="M8520 7687 c0 -13 16 -22 105 -65 17 -7 44 -12 60 -9 29 4 29 4 -5 6
-37 1 -76 33 -64 52 3 6 -3 5 -15 -3 -18 -11 -23 -10 -36 10 -18 24 -45 30
-45 9z"/>
<path d="M8830 7690 c0 -5 5 -10 11 -10 5 0 7 5 4 10 -3 6 -8 10 -11 10 -2 0
-4 -4 -4 -10z"/>
<path d="M9065 7690 c-3 -6 1 -7 9 -4 18 7 21 14 7 14 -6 0 -13 -4 -16 -10z"/>
<path d="M8673 7683 c-16 -6 8 -33 29 -33 8 0 6 5 -5 11 -9 6 -15 14 -12 20 7
10 6 10 -12 2z"/>
<path d="M8778 7658 c12 -12 25 -19 28 -15 4 4 -1 14 -12 22 -29 22 -41 18
-16 -7z"/>
<path d="M8905 7669 c-4 -6 -14 -8 -24 -4 -14 5 -14 4 1 -12 13 -13 21 -14 29
-6 6 6 19 9 28 5 14 -5 14 -4 -1 11 -19 20 -24 21 -33 6z"/>
<path d="M8720 7655 c0 -8 -7 -15 -17 -15 -9 0 -14 -2 -11 -5 8 -8 58 5 58 15
0 4 -7 10 -15 14 -9 3 -15 0 -15 -9z"/>
<path d="M8725 7600 c-4 -6 14 -10 47 -10 38 0 49 3 38 10 -20 13 -77 13 -85
0z"/>
<path d="M7047 7148 c-16 -12 -17 -41 -15 -338 l3 -325 50 0 c47 0 50 2 55 29
l5 28 20 -22 c64 -71 184 -66 248 9 88 106 69 345 -33 404 -59 34 -140 28
-193 -13 -14 -11 -27 -20 -30 -20 -3 0 -6 55 -6 122 -1 84 -5 125 -14 130 -19
12 -71 9 -90 -4z m258 -315 c25 -24 35 -58 35 -118 0 -62 -9 -91 -39 -122 -31
-33 -65 -29 -111 13 -39 36 -40 37 -40 106 0 66 2 72 34 104 39 39 92 46 121
17z"/>
<path d="M10665 7126 c-21 -15 -26 -79 -8 -97 16 -16 87 -16 107 0 24 20 22
87 -3 101 -28 14 -74 13 -96 -4z"/>
<path d="M6535 7106 c-65 -21 -101 -43 -132 -83 -51 -65 -68 -125 -68 -243 0
-98 2 -110 32 -170 52 -105 133 -146 278 -138 105 5 175 41 222 111 44 65 56
115 57 222 0 210 -98 316 -288 314 -34 0 -79 -6 -101 -13z m140 -97 c88 -24
120 -91 113 -237 -5 -108 -24 -147 -88 -179 -84 -43 -171 -18 -209 60 -30 61
-31 206 -3 269 22 50 38 65 89 84 47 16 49 16 98 3z"/>
<path d="M9797 7054 c-4 -4 -7 -29 -7 -56 0 -43 -2 -48 -23 -48 -29 0 -47 -18
-47 -46 0 -39 11 -54 40 -54 l27 0 5 -142 c5 -164 17 -200 73 -224 46 -19 115
-18 143 2 18 12 22 24 20 52 -3 36 -4 37 -46 37 -27 0 -46 5 -52 15 -5 8 -10
70 -10 137 l0 122 53 3 c46 3 52 6 55 27 2 12 1 34 -2 47 -6 21 -12 24 -56 24
l-49 0 -3 53 -3 52 -55 3 c-31 2 -59 0 -63 -4z"/>
<path d="M7660 6949 c-80 -24 -120 -86 -106 -161 8 -45 41 -75 129 -118 77
-37 93 -62 62 -94 -21 -20 -84 -21 -132 -1 -55 23 -63 20 -63 -25 0 -51 28
-71 113 -77 79 -7 138 9 176 48 77 77 40 191 -77 234 -26 10 -57 24 -69 31
-25 16 -30 53 -11 72 17 17 81 15 125 -3 19 -8 37 -15 39 -15 2 0 4 20 4 43 0
37 -4 46 -25 55 -38 17 -125 23 -165 11z"/>
<path d="M8119 6951 c-110 -23 -169 -108 -169 -246 0 -85 17 -134 59 -176 20
-20 54 -42 76 -48 57 -16 153 -14 213 4 l52 16 0 44 c0 25 -3 45 -7 45 -5 0
-30 -7 -57 -15 -62 -19 -119 -19 -155 -1 -36 19 -47 34 -54 74 l-6 32 137 0
c75 0 143 4 151 9 10 6 12 27 9 78 -6 115 -59 174 -168 186 -25 3 -61 2 -81
-2z m100 -98 c12 -10 26 -35 30 -55 l9 -38 -95 0 c-83 0 -94 2 -89 16 3 9 6
22 6 30 0 8 12 26 26 39 32 30 82 33 113 8z"/>
<path d="M8655 6948 c-11 -6 -32 -22 -47 -36 l-28 -26 0 26 c0 28 -16 38 -58
38 -53 0 -53 0 -50 -241 l3 -224 58 -3 57 -3 0 137 c0 121 2 140 21 170 26 43
51 56 97 52 l37 -3 3 50 c3 38 -1 52 -14 62 -22 16 -52 16 -79 1z"/>
<path d="M9420 6954 c-90 -17 -130 -43 -130 -83 0 -50 10 -53 85 -26 103 36
165 17 165 -50 l0 -32 -67 -7 c-105 -11 -138 -23 -173 -63 -30 -34 -32 -40
-28 -94 5 -65 23 -93 75 -115 49 -21 113 -17 166 9 43 22 46 23 50 5 4 -14 15
-18 51 -18 l46 0 0 183 c0 203 -8 236 -65 268 -31 18 -131 31 -175 23z m120
-312 c0 -42 -17 -64 -63 -81 -45 -17 -81 4 -85 51 -3 32 1 39 25 52 15 8 49
15 76 16 l47 0 0 -38z"/>
<path d="M10222 6938 c-86 -32 -131 -109 -132 -228 0 -89 16 -138 59 -181 46
-46 103 -63 194 -56 83 5 139 39 177 107 22 39 25 57 25 140 0 86 -3 100 -27
142 -51 85 -181 119 -296 76z m164 -101 c50 -44 52 -194 2 -244 -28 -28 -91
-34 -126 -12 -61 38 -65 212 -5 259 36 28 94 26 129 -3z"/>
<path d="M11075 6948 c-11 -6 -32 -22 -47 -36 l-28 -26 0 26 c0 28 -16 38 -58
38 -53 0 -53 0 -50 -241 l3 -224 58 -3 57 -3 0 137 c0 121 2 140 21 170 26 43
51 56 97 52 l37 -3 3 50 c3 38 -1 52 -14 62 -22 16 -52 16 -79 1z"/>
<path d="M11389 6951 c-78 -16 -137 -72 -159 -150 -13 -48 -13 -146 1 -196 14
-51 73 -110 124 -124 57 -16 153 -14 213 4 l52 16 0 44 c0 25 -3 45 -7 45 -5
0 -30 -7 -57 -15 -63 -19 -119 -19 -156 0 -31 16 -43 33 -54 78 l-6 27 137 0
c76 0 144 4 152 9 10 6 12 27 9 78 -6 115 -59 174 -168 186 -25 3 -61 2 -81
-2z m100 -98 c12 -10 26 -35 30 -55 l9 -38 -95 0 c-83 0 -94 2 -89 16 3 9 6
22 6 30 0 8 12 26 26 39 32 30 82 33 113 8z"/>
<path d="M8785 6938 c-3 -7 28 -112 68 -233 l74 -220 75 -3 c52 -2 78 1 85 10
20 25 146 424 140 441 -5 12 -19 17 -51 17 -58 0 -61 -5 -117 -192 -24 -81
-46 -144 -50 -140 -4 4 -28 77 -54 162 -26 85 -53 158 -59 162 -19 13 -106 9
-111 -4z"/>
<path d="M10661 6937 c-8 -11 -11 -76 -9 -233 l3 -219 58 -3 57 -3 -2 233 -3
233 -46 3 c-30 2 -50 -2 -58 -11z"/>
<path d="M7293 5568 c-11 -26 -5 -98 8 -98 5 0 9 14 9 30 0 20 5 30 15 30 10
0 15 -10 15 -30 0 -16 5 -30 10 -30 6 0 10 18 10 40 0 36 -2 40 -25 40 -14 0
-25 5 -25 10 0 6 5 10 10 10 6 0 10 5 10 10 0 19 -27 10 -37 -12z"/>
<path d="M7745 5579 c-11 -17 1 -21 15 -4 8 9 8 15 2 15 -6 0 -14 -5 -17 -11z"/>
<path d="M8100 5530 c0 -33 4 -60 10 -60 6 0 10 27 10 60 0 33 -4 60 -10 60
-6 0 -10 -27 -10 -60z"/>
<path d="M8720 5575 c7 -9 15 -13 17 -11 7 7 -7 26 -19 26 -6 0 -6 -6 2 -15z"/>
<path d="M9020 5571 c0 -13 -8 -21 -22 -23 -19 -2 -23 -9 -23 -38 0 -32 2 -35
33 -37 l32 -1 0 59 c0 33 -4 59 -10 59 -5 0 -10 -9 -10 -19z m0 -61 c0 -11 -7
-20 -15 -20 -8 0 -15 9 -15 20 0 11 7 20 15 20 8 0 15 -9 15 -20z"/>
<path d="M9180 5530 c0 -33 4 -60 10 -60 6 0 10 27 10 60 0 33 -4 60 -10 60
-6 0 -10 -27 -10 -60z"/>
<path d="M9218 5565 c-6 -28 6 -34 16 -9 8 22 7 34 -3 34 -5 0 -11 -11 -13
-25z"/>
<path d="M10575 5579 c-11 -17 1 -21 15 -4 8 9 8 15 2 15 -6 0 -14 -5 -17 -11z"/>
<path d="M6820 5525 c0 -30 5 -55 10 -55 6 0 10 9 10 20 0 13 7 20 20 20 24 0
43 39 28 58 -6 6 -23 12 -39 12 -28 0 -29 -1 -29 -55z m50 20 c0 -8 -7 -15
-15 -15 -8 0 -15 7 -15 15 0 8 7 15 15 15 8 0 15 -7 15 -15z"/>
<path d="M7060 5570 c0 -5 5 -10 10 -10 6 0 10 5 10 10 0 6 -4 10 -10 10 -5 0
-10 -4 -10 -10z"/>
<path d="M7340 5570 c0 -5 5 -10 10 -10 6 0 10 5 10 10 0 6 -4 10 -10 10 -5 0
-10 -4 -10 -10z"/>
<path d="M8260 5525 c0 -65 17 -74 22 -12 l3 42 14 -42 c8 -24 19 -43 26 -43
6 0 18 19 27 43 l17 42 0 -42 c1 -24 6 -43 11 -43 6 0 10 25 10 55 0 48 -3 55
-19 55 -13 0 -21 -9 -26 -30 -10 -43 -22 -45 -35 -5 -8 24 -18 35 -31 35 -16
0 -19 -7 -19 -55z"/>
<path d="M8410 5570 c0 -5 5 -10 10 -10 6 0 10 5 10 10 0 6 -4 10 -10 10 -5 0
-10 -4 -10 -10z"/>
<path d="M8540 5570 c0 -5 5 -10 10 -10 6 0 10 5 10 10 0 6 -4 10 -10 10 -5 0
-10 -4 -10 -10z"/>
<path d="M9260 5525 c0 -54 0 -55 29 -55 17 0 33 5 36 10 4 6 -5 10 -19 10
-16 0 -26 6 -26 15 0 8 9 15 20 15 11 0 20 5 20 10 0 6 -9 10 -20 10 -11 0
-20 5 -20 10 0 6 9 10 20 10 11 0 20 5 20 10 0 6 -13 10 -30 10 -30 0 -30 -1
-30 -55z"/>
<path d="M9590 5570 c0 -5 5 -10 10 -10 6 0 10 5 10 10 0 6 -4 10 -10 10 -5 0
-10 -4 -10 -10z"/>
<path d="M10297 5574 c-14 -14 -7 -43 13 -54 26 -14 26 -34 -1 -27 -13 3 -19
1 -16 -6 6 -19 40 -21 53 -3 10 14 12 14 17 2 4 -9 18 -14 36 -14 29 1 31 3
31 40 0 21 -4 38 -10 38 -5 0 -10 -13 -10 -30 0 -20 -5 -30 -15 -30 -10 0 -15
10 -15 30 0 17 -4 30 -10 30 -5 0 -10 -9 -10 -20 0 -20 -1 -20 -25 -3 -30 22
-32 37 -4 30 13 -3 19 -1 16 6 -4 14 -39 21 -50 11z"/>
<path d="M10690 5570 c0 -5 5 -10 10 -10 6 0 10 5 10 10 0 6 -4 10 -10 10 -5
0 -10 -4 -10 -10z"/>
<path d="M7190 5552 c-10 -11 -11 -17 -2 -20 7 -2 12 -17 12 -33 0 -19 5 -29
14 -29 21 0 29 17 11 24 -20 7 -19 26 3 42 15 12 15 13 0 14 -9 0 -18 4 -20 9
-1 5 -10 2 -18 -7z"/>
<path d="M8650 5552 c-10 -11 -11 -17 -2 -20 7 -2 12 -17 12 -33 0 -19 5 -29
15 -29 16 0 20 12 8 24 -13 13 -11 36 3 36 8 0 14 5 14 10 0 6 -6 10 -14 10
-8 0 -16 4 -18 9 -1 5 -10 2 -18 -7z"/>
<path d="M10190 5552 c-10 -11 -11 -17 -2 -20 7 -2 12 -17 12 -33 0 -17 5 -29
13 -29 23 0 27 12 10 28 -14 14 -14 17 3 29 9 7 16 14 13 16 -2 1 -11 8 -19
14 -11 8 -18 7 -30 -5z"/>
<path d="M6910 5509 c0 -22 5 -39 10 -39 6 0 10 11 10 25 0 14 7 28 15 31 23
9 18 22 -10 22 -22 0 -25 -5 -25 -39z"/>
<path d="M6982 5541 c-8 -5 -12 -21 -10 -37 2 -23 9 -30 30 -32 32 -4 50 22
37 56 -9 22 -33 28 -57 13z m38 -31 c0 -11 -7 -20 -15 -20 -8 0 -15 9 -15 20
0 11 7 20 15 20 8 0 15 -9 15 -20z"/>
<path d="M7058 5498 c-5 -59 -4 -63 11 -53 13 8 15 105 2 105 -5 0 -11 -24
-13 -52z"/>
<path d="M7111 5536 c-7 -8 -11 -25 -9 -38 2 -18 10 -24 36 -26 39 -4 43 15 5
21 l-28 4 28 2 c23 1 28 5 25 24 -4 26 -39 35 -57 13z m36 -12 c-3 -3 -12 -4
-19 -1 -8 3 -5 6 6 6 11 1 17 -2 13 -5z"/>
<path d="M7380 5509 c0 -44 17 -54 22 -12 4 39 28 42 28 4 0 -17 5 -31 11 -31
6 0 9 16 7 38 -3 34 -6 37 -35 39 -32 1 -33 0 -33 -38z"/>
<path d="M7475 5541 c-3 -7 3 -11 17 -12 l23 0 -22 -9 c-13 -6 -23 -18 -23
-30 0 -16 7 -20 31 -20 29 0 30 2 27 38 -2 29 -8 38 -25 40 -11 2 -24 -2 -28
-7z"/>
<path d="M7550 5509 c0 -44 17 -54 22 -12 4 39 28 42 28 4 0 -17 5 -31 11 -31
6 0 9 16 7 38 -3 34 -6 37 -35 39 -32 1 -33 0 -33 -38z"/>
<path d="M7644 5536 c-12 -31 0 -61 25 -61 13 0 26 5 28 12 3 7 -3 9 -16 6
-16 -4 -21 -1 -21 16 0 15 6 21 21 21 11 0 17 5 14 10 -9 15 -45 12 -51 -4z"/>
<path d="M7721 5536 c-7 -8 -11 -25 -9 -38 2 -18 10 -24 36 -26 39 -4 43 15 5
21 l-28 4 28 2 c23 1 28 5 25 24 -4 26 -39 35 -57 13z m36 -12 c-3 -3 -12 -4
-19 -1 -8 3 -5 6 6 6 11 1 17 -2 13 -5z"/>
<path d="M7830 5494 c0 -30 5 -54 10 -54 6 0 10 8 10 18 0 13 7 18 23 18 19
-1 22 4 22 34 0 32 -2 35 -32 37 l-33 1 0 -54z m50 16 c0 -21 -15 -27 -25 -10
-7 12 2 30 16 30 5 0 9 -9 9 -20z"/>
<path d="M7925 5541 c-3 -7 3 -11 17 -12 l23 0 -22 -9 c-13 -6 -23 -18 -23
-30 0 -16 7 -20 31 -20 29 0 30 2 27 38 -2 29 -8 38 -25 40 -11 2 -24 -2 -28
-7z"/>
<path d="M8000 5509 c0 -22 5 -39 10 -39 6 0 10 11 10 25 0 14 7 28 15 31 23
9 18 22 -10 22 -22 0 -25 -5 -25 -39z"/>
<path d="M8151 5536 c-7 -8 -11 -25 -9 -38 2 -18 10 -24 36 -26 39 -4 43 15 5
21 l-28 4 28 2 c23 1 28 5 25 24 -4 26 -39 35 -57 13z m36 -12 c-3 -3 -12 -4
-19 -1 -8 3 -5 6 6 6 11 1 17 -2 13 -5z"/>
<path d="M8410 5510 c0 -22 5 -40 10 -40 6 0 10 18 10 40 0 22 -4 40 -10 40
-5 0 -10 -18 -10 -40z"/>
<path d="M8450 5509 c0 -44 17 -54 22 -12 4 39 28 42 28 4 0 -17 5 -31 11 -31
6 0 9 16 7 38 -3 34 -6 37 -35 39 -32 1 -33 0 -33 -38z"/>
<path d="M8540 5510 c0 -22 5 -40 10 -40 6 0 10 18 10 40 0 22 -4 40 -10 40
-5 0 -10 -18 -10 -40z"/>
<path d="M8584 5535 c-4 -9 1 -22 12 -31 18 -15 18 -15 1 -10 -12 4 -17 2 -15
-6 7 -20 37 -21 45 -2 4 11 -1 22 -13 32 -18 14 -18 14 -1 8 13 -4 17 -2 15 6
-7 20 -37 22 -44 3z"/>
<path d="M8711 5536 c-7 -8 -11 -25 -9 -38 2 -18 10 -24 36 -26 39 -4 43 15 5
21 l-28 4 28 2 c23 1 28 5 25 24 -4 26 -39 35 -57 13z m36 -12 c-3 -3 -12 -4
-19 -1 -8 3 -5 6 6 6 11 1 17 -2 13 -5z"/>
<path d="M8790 5509 c0 -22 5 -39 10 -39 6 0 10 11 10 25 0 14 7 28 15 31 23
9 18 22 -10 22 -22 0 -25 -5 -25 -39z"/>
<path d="M8851 5536 c-7 -8 -11 -25 -9 -38 2 -18 10 -24 36 -26 39 -4 43 15 5
21 l-28 4 28 2 c23 1 28 5 25 24 -4 26 -39 35 -57 13z m36 -12 c-3 -3 -12 -4
-19 -1 -8 3 -5 6 6 6 11 1 17 -2 13 -5z"/>
<path d="M9071 5536 c-7 -8 -11 -25 -9 -38 2 -18 10 -24 36 -26 39 -4 43 15 5
21 l-28 4 28 2 c23 1 28 5 25 24 -4 26 -39 35 -57 13z m36 -12 c-3 -3 -12 -4
-19 -1 -8 3 -5 6 6 6 11 1 17 -2 13 -5z"/>
<path d="M9340 5509 c0 -44 17 -54 22 -12 4 39 28 42 28 4 0 -17 5 -31 11 -31
6 0 9 16 7 38 -3 34 -6 37 -35 39 -32 1 -33 0 -33 -38z"/>
<path d="M9434 5535 c-4 -9 1 -22 12 -31 17 -14 17 -15 2 -10 -12 3 -18 0 -18
-9 0 -20 39 -19 47 1 4 11 -1 23 -13 32 -18 14 -18 14 -1 8 13 -4 17 -2 15 6
-7 20 -37 22 -44 3z"/>
<path d="M9511 5536 c-7 -8 -11 -25 -9 -38 2 -18 10 -24 36 -26 39 -4 43 15 5
21 l-28 4 28 2 c23 1 28 5 25 24 -4 26 -39 35 -57 13z m36 -12 c-3 -3 -12 -4
-19 -1 -8 3 -5 6 6 6 11 1 17 -2 13 -5z"/>
<path d="M9590 5510 c0 -22 5 -40 10 -40 6 0 10 18 10 40 0 22 -4 40 -10 40
-5 0 -10 -18 -10 -40z"/>
<path d="M9637 5543 c-3 -5 -7 -28 -8 -53 -4 -42 -2 -45 22 -48 27 -3 55 20
44 38 -3 5 -18 11 -33 11 -21 1 -22 2 -7 6 20 5 45 30 45 45 0 10 -57 11 -63
1z m33 -23 c0 -5 -4 -10 -10 -10 -5 0 -10 5 -10 10 0 6 5 10 10 10 6 0 10 -4
10 -10z m-3 -56 c-3 -3 -12 -4 -19 -1 -8 3 -5 6 6 6 11 1 17 -2 13 -5z"/>
<path d="M9710 5509 c0 -44 17 -54 22 -12 4 39 28 42 28 4 0 -17 5 -31 11 -31
6 0 9 16 7 38 -3 34 -6 37 -35 39 -32 1 -33 0 -33 -38z"/>
<path d="M9801 5536 c-7 -8 -11 -25 -9 -38 2 -18 10 -24 36 -26 39 -4 43 15 5
21 l-28 4 28 2 c23 1 28 5 25 24 -4 26 -39 35 -57 13z m36 -12 c-3 -3 -12 -4
-19 -1 -8 3 -5 6 6 6 11 1 17 -2 13 -5z"/>
<path d="M9880 5509 c0 -44 17 -53 22 -12 4 39 28 42 28 4 0 -38 17 -41 22 -4
4 39 28 42 28 4 0 -17 5 -31 11 -31 6 0 9 16 7 38 l-3 37 -57 1 -58 1 0 -38z"/>
<path d="M10021 5536 c-7 -8 -11 -25 -9 -38 2 -18 10 -24 36 -26 39 -4 43 15
5 21 l-28 4 28 2 c23 1 28 5 25 24 -4 26 -39 35 -57 13z m36 -12 c-3 -3 -12
-4 -19 -1 -8 3 -5 6 6 6 11 1 17 -2 13 -5z"/>
<path d="M10100 5509 c0 -44 17 -54 22 -12 4 39 28 42 28 4 0 -17 5 -31 11
-31 6 0 9 16 7 38 -3 34 -6 37 -35 39 -32 1 -33 0 -33 -38z"/>
<path d="M10450 5494 c0 -30 5 -54 10 -54 6 0 10 6 10 14 0 8 10 16 23 18 18
2 22 9 22 38 0 32 -2 35 -32 37 l-33 1 0 -54z m50 16 c0 -21 -15 -27 -25 -10
-7 12 2 30 16 30 5 0 9 -9 9 -20z"/>
<path d="M10551 5536 c-7 -8 -11 -25 -9 -38 2 -18 10 -24 36 -26 39 -4 43 15
5 21 l-28 4 28 2 c23 1 28 5 25 24 -4 26 -39 35 -57 13z m36 -12 c-3 -3 -12
-4 -19 -1 -8 3 -5 6 6 6 11 1 17 -2 13 -5z"/>
<path d="M10630 5509 c0 -22 5 -39 10 -39 6 0 10 11 10 25 0 14 7 28 15 31 23
9 18 22 -10 22 -22 0 -25 -5 -25 -39z"/>
<path d="M10690 5510 c0 -22 5 -40 10 -40 6 0 10 18 10 40 0 22 -4 40 -10 40
-5 0 -10 -18 -10 -40z"/>
<path d="M10731 5536 c-7 -8 -11 -25 -9 -38 2 -18 10 -24 36 -26 39 -4 43 15
5 21 l-28 4 28 2 c23 1 28 5 25 24 -4 26 -39 35 -57 13z m36 -12 c-3 -3 -12
-4 -19 -1 -8 3 -5 6 6 6 11 1 17 -2 13 -5z"/>
<path d="M10812 5513 c3 -35 6 -38 36 -40 31 -1 32 0 32 38 0 21 -4 39 -10 39
-5 0 -10 -13 -10 -30 0 -20 -5 -30 -15 -30 -10 0 -15 10 -15 30 0 17 -5 30
-11 30 -6 0 -9 -16 -7 -37z"/>
<path d="M10900 5509 c0 -22 5 -39 10 -39 6 0 10 11 10 25 0 14 7 28 15 31 23
9 18 22 -10 22 -22 0 -25 -5 -25 -39z"/>
<path d="M4452 5300 c-139 -67 -265 -144 -318 -195 -99 -94 -28 -164 205 -201
133 -21 606 -30 842 -15 234 14 1063 120 1079 138 3 3 -17 3 -45 -1 -268 -33
-848 -66 -1163 -66 -495 0 -740 54 -717 159 8 38 86 115 177 177 37 25 68 47
68 50 0 11 -34 -1 -128 -46z"/>
</g>
</svg>
